<mxfile host="app.diagrams.net" modified="2023-05-25T07:56:51.531Z" agent="Mozilla/5.0 (Windows NT 10.0; Win64; x64) AppleWebKit/537.36 (KHTML, like Gecko) Chrome/113.0.0.0 Safari/537.36" etag="ZHlWNkupQ_eehXlcGx7L" version="21.3.3" type="github">
  <diagram name="第 1 页" id="69PS-kUTxplC0cAKnFhr">
    <mxGraphModel dx="2261" dy="1933" grid="1" gridSize="10" guides="1" tooltips="1" connect="1" arrows="1" fold="1" page="1" pageScale="1" pageWidth="827" pageHeight="1169" math="0" shadow="0">
      <root>
        <mxCell id="0" />
        <mxCell id="1" parent="0" />
        <mxCell id="gYT4duZdmP7vBCuGks7C-3" value="" style="rounded=1;whiteSpace=wrap;html=1;fillColor=#dae8fc;strokeColor=#6c8ebf;" parent="1" vertex="1">
          <mxGeometry x="159" y="-730" width="611" height="510" as="geometry" />
        </mxCell>
        <mxCell id="gYT4duZdmP7vBCuGks7C-2" value="&lt;b style=&quot;font-size: 16px;&quot;&gt;&lt;font style=&quot;font-size: 16px;&quot;&gt;ApplicationContext&lt;br&gt;容器&lt;br&gt;&lt;/font&gt;&lt;/b&gt;" style="text;html=1;strokeColor=none;fillColor=none;align=center;verticalAlign=middle;whiteSpace=wrap;rounded=1;" parent="1" vertex="1">
          <mxGeometry x="320" y="-700" width="60" height="30" as="geometry" />
        </mxCell>
        <mxCell id="gYT4duZdmP7vBCuGks7C-6" value="" style="rounded=1;whiteSpace=wrap;html=1;fillColor=#80FF00;strokeColor=#d6b656;gradientColor=none;" parent="1" vertex="1">
          <mxGeometry x="414" y="-620" width="140" height="80" as="geometry" />
        </mxCell>
        <mxCell id="gYT4duZdmP7vBCuGks7C-5" value="" style="image;aspect=fixed;perimeter=ellipsePerimeter;html=1;align=center;shadow=0;dashed=0;fontColor=#4277BB;labelBackgroundColor=default;fontSize=12;spacingTop=3;image=img/lib/ibm/blockchain/event_listener.svg;rounded=1;" parent="1" vertex="1">
          <mxGeometry x="434" y="-610" width="30" height="30" as="geometry" />
        </mxCell>
        <mxCell id="gYT4duZdmP7vBCuGks7C-8" value="&lt;b&gt;&lt;font color=&quot;#0000cc&quot; style=&quot;font-size: 13px;&quot;&gt;监听器1&lt;/font&gt;&lt;/b&gt;" style="text;html=1;strokeColor=none;fillColor=none;align=center;verticalAlign=middle;whiteSpace=wrap;rounded=0;" parent="1" vertex="1">
          <mxGeometry x="474" y="-610" width="60" height="30" as="geometry" />
        </mxCell>
        <mxCell id="gYT4duZdmP7vBCuGks7C-9" value="&lt;b&gt;监听事件A&lt;/b&gt;" style="text;html=1;strokeColor=none;fillColor=none;align=center;verticalAlign=middle;whiteSpace=wrap;rounded=0;" parent="1" vertex="1">
          <mxGeometry x="454" y="-580" width="60" height="30" as="geometry" />
        </mxCell>
        <mxCell id="gYT4duZdmP7vBCuGks7C-30" value="" style="rounded=1;whiteSpace=wrap;html=1;fillColor=#80FF00;strokeColor=#d6b656;" parent="1" vertex="1">
          <mxGeometry x="414" y="-510" width="140" height="80" as="geometry" />
        </mxCell>
        <mxCell id="gYT4duZdmP7vBCuGks7C-31" value="" style="image;aspect=fixed;perimeter=ellipsePerimeter;html=1;align=center;shadow=0;dashed=0;fontColor=#4277BB;labelBackgroundColor=default;fontSize=12;spacingTop=3;image=img/lib/ibm/blockchain/event_listener.svg;rounded=1;" parent="1" vertex="1">
          <mxGeometry x="434" y="-500" width="30" height="30" as="geometry" />
        </mxCell>
        <mxCell id="gYT4duZdmP7vBCuGks7C-32" value="&lt;b&gt;&lt;font color=&quot;#0000cc&quot; style=&quot;font-size: 13px;&quot;&gt;监听器2&lt;/font&gt;&lt;/b&gt;" style="text;html=1;strokeColor=none;fillColor=none;align=center;verticalAlign=middle;whiteSpace=wrap;rounded=0;" parent="1" vertex="1">
          <mxGeometry x="474" y="-500" width="60" height="30" as="geometry" />
        </mxCell>
        <mxCell id="gYT4duZdmP7vBCuGks7C-33" value="&lt;b&gt;监听事件B&lt;/b&gt;" style="text;html=1;strokeColor=none;fillColor=none;align=center;verticalAlign=middle;whiteSpace=wrap;rounded=0;" parent="1" vertex="1">
          <mxGeometry x="454" y="-470" width="60" height="30" as="geometry" />
        </mxCell>
        <mxCell id="gYT4duZdmP7vBCuGks7C-34" value="" style="rounded=1;whiteSpace=wrap;html=1;fillColor=#80FF00;strokeColor=#d6b656;" parent="1" vertex="1">
          <mxGeometry x="414" y="-400" width="140" height="80" as="geometry" />
        </mxCell>
        <mxCell id="gYT4duZdmP7vBCuGks7C-35" value="" style="image;aspect=fixed;perimeter=ellipsePerimeter;html=1;align=center;shadow=0;dashed=0;fontColor=#4277BB;labelBackgroundColor=default;fontSize=12;spacingTop=3;image=img/lib/ibm/blockchain/event_listener.svg;rounded=1;" parent="1" vertex="1">
          <mxGeometry x="434" y="-390" width="30" height="30" as="geometry" />
        </mxCell>
        <mxCell id="gYT4duZdmP7vBCuGks7C-36" value="&lt;b&gt;&lt;font color=&quot;#0000cc&quot; style=&quot;font-size: 13px;&quot;&gt;监听器3&lt;/font&gt;&lt;/b&gt;" style="text;html=1;strokeColor=none;fillColor=none;align=center;verticalAlign=middle;whiteSpace=wrap;rounded=0;" parent="1" vertex="1">
          <mxGeometry x="474" y="-390" width="60" height="30" as="geometry" />
        </mxCell>
        <mxCell id="gYT4duZdmP7vBCuGks7C-37" value="&lt;b&gt;监听事件A&lt;/b&gt;" style="text;html=1;strokeColor=none;fillColor=none;align=center;verticalAlign=middle;whiteSpace=wrap;rounded=0;" parent="1" vertex="1">
          <mxGeometry x="454" y="-360" width="60" height="30" as="geometry" />
        </mxCell>
        <mxCell id="gYT4duZdmP7vBCuGks7C-38" value="" style="rounded=1;whiteSpace=wrap;html=1;fillColor=#80FF00;strokeColor=#d6b656;" parent="1" vertex="1">
          <mxGeometry x="580" y="-620" width="140" height="80" as="geometry" />
        </mxCell>
        <mxCell id="gYT4duZdmP7vBCuGks7C-39" value="" style="image;aspect=fixed;perimeter=ellipsePerimeter;html=1;align=center;shadow=0;dashed=0;fontColor=#4277BB;labelBackgroundColor=default;fontSize=12;spacingTop=3;image=img/lib/ibm/blockchain/event_listener.svg;rounded=1;" parent="1" vertex="1">
          <mxGeometry x="600" y="-610" width="30" height="30" as="geometry" />
        </mxCell>
        <mxCell id="gYT4duZdmP7vBCuGks7C-40" value="&lt;b&gt;&lt;font color=&quot;#0000cc&quot; style=&quot;font-size: 13px;&quot;&gt;监听器4&lt;/font&gt;&lt;/b&gt;" style="text;html=1;strokeColor=none;fillColor=none;align=center;verticalAlign=middle;whiteSpace=wrap;rounded=0;" parent="1" vertex="1">
          <mxGeometry x="640" y="-610" width="60" height="30" as="geometry" />
        </mxCell>
        <mxCell id="gYT4duZdmP7vBCuGks7C-41" value="&lt;b&gt;监听事件C&lt;/b&gt;" style="text;html=1;strokeColor=none;fillColor=none;align=center;verticalAlign=middle;whiteSpace=wrap;rounded=0;" parent="1" vertex="1">
          <mxGeometry x="620" y="-580" width="60" height="30" as="geometry" />
        </mxCell>
        <mxCell id="gYT4duZdmP7vBCuGks7C-42" value="" style="rounded=1;whiteSpace=wrap;html=1;fillColor=#80FF00;strokeColor=#d6b656;" parent="1" vertex="1">
          <mxGeometry x="580" y="-510" width="140" height="80" as="geometry" />
        </mxCell>
        <mxCell id="gYT4duZdmP7vBCuGks7C-43" value="" style="image;aspect=fixed;perimeter=ellipsePerimeter;html=1;align=center;shadow=0;dashed=0;fontColor=#4277BB;labelBackgroundColor=default;fontSize=12;spacingTop=3;image=img/lib/ibm/blockchain/event_listener.svg;rounded=1;" parent="1" vertex="1">
          <mxGeometry x="600" y="-500" width="30" height="30" as="geometry" />
        </mxCell>
        <mxCell id="gYT4duZdmP7vBCuGks7C-44" value="&lt;b&gt;&lt;font color=&quot;#0000cc&quot; style=&quot;font-size: 13px;&quot;&gt;监听器5&lt;/font&gt;&lt;/b&gt;" style="text;html=1;strokeColor=none;fillColor=none;align=center;verticalAlign=middle;whiteSpace=wrap;rounded=0;" parent="1" vertex="1">
          <mxGeometry x="640" y="-500" width="60" height="30" as="geometry" />
        </mxCell>
        <mxCell id="gYT4duZdmP7vBCuGks7C-45" value="&lt;b&gt;监听事件B&lt;/b&gt;" style="text;html=1;strokeColor=none;fillColor=none;align=center;verticalAlign=middle;whiteSpace=wrap;rounded=0;" parent="1" vertex="1">
          <mxGeometry x="620" y="-470" width="60" height="30" as="geometry" />
        </mxCell>
        <mxCell id="gYT4duZdmP7vBCuGks7C-46" value="" style="rounded=1;whiteSpace=wrap;html=1;fillColor=#80FF00;strokeColor=#d6b656;" parent="1" vertex="1">
          <mxGeometry x="580" y="-400" width="140" height="80" as="geometry" />
        </mxCell>
        <mxCell id="gYT4duZdmP7vBCuGks7C-47" value="" style="image;aspect=fixed;perimeter=ellipsePerimeter;html=1;align=center;shadow=0;dashed=0;fontColor=#4277BB;labelBackgroundColor=default;fontSize=12;spacingTop=3;image=img/lib/ibm/blockchain/event_listener.svg;rounded=1;" parent="1" vertex="1">
          <mxGeometry x="600" y="-390" width="30" height="30" as="geometry" />
        </mxCell>
        <mxCell id="gYT4duZdmP7vBCuGks7C-48" value="&lt;b&gt;&lt;font color=&quot;#0000cc&quot; style=&quot;font-size: 13px;&quot;&gt;监听器6&lt;/font&gt;&lt;/b&gt;" style="text;html=1;strokeColor=none;fillColor=none;align=center;verticalAlign=middle;whiteSpace=wrap;rounded=0;" parent="1" vertex="1">
          <mxGeometry x="640" y="-390" width="60" height="30" as="geometry" />
        </mxCell>
        <mxCell id="gYT4duZdmP7vBCuGks7C-49" value="&lt;b&gt;监听事件A&lt;/b&gt;" style="text;html=1;strokeColor=none;fillColor=none;align=center;verticalAlign=middle;whiteSpace=wrap;rounded=0;" parent="1" vertex="1">
          <mxGeometry x="620" y="-360" width="60" height="30" as="geometry" />
        </mxCell>
        <mxCell id="gYT4duZdmP7vBCuGks7C-64" style="edgeStyle=orthogonalEdgeStyle;rounded=1;orthogonalLoop=1;jettySize=auto;html=1;exitX=0;exitY=0;exitDx=140;exitDy=50;exitPerimeter=0;entryX=0;entryY=0.5;entryDx=0;entryDy=0;" parent="1" source="gYT4duZdmP7vBCuGks7C-50" target="gYT4duZdmP7vBCuGks7C-6" edge="1">
          <mxGeometry relative="1" as="geometry">
            <Array as="points">
              <mxPoint x="370" y="-470" />
              <mxPoint x="370" y="-580" />
            </Array>
          </mxGeometry>
        </mxCell>
        <mxCell id="gYT4duZdmP7vBCuGks7C-67" style="edgeStyle=orthogonalEdgeStyle;rounded=1;orthogonalLoop=1;jettySize=auto;html=1;exitX=0;exitY=0;exitDx=140;exitDy=50;exitPerimeter=0;entryX=0;entryY=0.5;entryDx=0;entryDy=0;" parent="1" source="gYT4duZdmP7vBCuGks7C-50" target="gYT4duZdmP7vBCuGks7C-34" edge="1">
          <mxGeometry relative="1" as="geometry">
            <Array as="points">
              <mxPoint x="380" y="-470" />
              <mxPoint x="380" y="-360" />
            </Array>
          </mxGeometry>
        </mxCell>
        <mxCell id="gYT4duZdmP7vBCuGks7C-70" style="edgeStyle=orthogonalEdgeStyle;rounded=1;orthogonalLoop=1;jettySize=auto;html=1;exitX=0;exitY=0;exitDx=140;exitDy=50;exitPerimeter=0;entryX=0.5;entryY=1;entryDx=0;entryDy=0;" parent="1" source="gYT4duZdmP7vBCuGks7C-50" target="gYT4duZdmP7vBCuGks7C-46" edge="1">
          <mxGeometry relative="1" as="geometry">
            <Array as="points">
              <mxPoint x="370" y="-470" />
              <mxPoint x="370" y="-300" />
              <mxPoint x="650" y="-300" />
            </Array>
          </mxGeometry>
        </mxCell>
        <mxCell id="gYT4duZdmP7vBCuGks7C-50" value="&lt;b style=&quot;border-color: var(--border-color);&quot;&gt;&lt;font style=&quot;border-color: var(--border-color); font-size: 14px;&quot;&gt;EventMultiCaster&lt;br&gt;事件多播器&lt;br&gt;&lt;/font&gt;&lt;/b&gt;" style="shape=cube;whiteSpace=wrap;html=1;boundedLbl=1;backgroundOutline=1;darkOpacity=0.05;darkOpacity2=0.1;rounded=1;fillColor=#FF8000;" parent="1" vertex="1">
          <mxGeometry x="210" y="-520" width="140" height="80" as="geometry" />
        </mxCell>
        <mxCell id="gYT4duZdmP7vBCuGks7C-54" style="edgeStyle=orthogonalEdgeStyle;rounded=1;orthogonalLoop=1;jettySize=auto;html=1;entryX=0;entryY=0.5;entryDx=0;entryDy=0;elbow=vertical;curved=1;" parent="1" source="gYT4duZdmP7vBCuGks7C-51" target="gYT4duZdmP7vBCuGks7C-52" edge="1">
          <mxGeometry relative="1" as="geometry">
            <Array as="points">
              <mxPoint x="98" y="-755" />
              <mxPoint x="98" y="-685" />
            </Array>
          </mxGeometry>
        </mxCell>
        <mxCell id="gYT4duZdmP7vBCuGks7C-55" value="&lt;font style=&quot;font-size: 14px;&quot;&gt;&lt;b&gt;发布事件A&lt;/b&gt;&lt;/font&gt;" style="edgeLabel;html=1;align=center;verticalAlign=middle;resizable=0;points=[];" parent="gYT4duZdmP7vBCuGks7C-54" vertex="1" connectable="0">
          <mxGeometry x="-0.139" y="-12" relative="1" as="geometry">
            <mxPoint as="offset" />
          </mxGeometry>
        </mxCell>
        <mxCell id="gYT4duZdmP7vBCuGks7C-51" value="" style="pointerEvents=1;verticalLabelPosition=bottom;shadow=0;dashed=0;align=center;html=1;verticalAlign=top;shape=mxgraph.electrical.electro-mechanical.loudspeaker;rounded=1;fillColor=#FF0000;strokeColor=#000000;" parent="1" vertex="1">
          <mxGeometry x="-60" y="-780" width="45" height="50" as="geometry" />
        </mxCell>
        <mxCell id="gYT4duZdmP7vBCuGks7C-58" style="edgeStyle=orthogonalEdgeStyle;rounded=1;orthogonalLoop=1;jettySize=auto;html=1;exitX=1;exitY=1;exitDx=0;exitDy=0;curved=1;" parent="1" source="gYT4duZdmP7vBCuGks7C-52" target="gYT4duZdmP7vBCuGks7C-50" edge="1">
          <mxGeometry relative="1" as="geometry" />
        </mxCell>
        <mxCell id="gYT4duZdmP7vBCuGks7C-61" value="&lt;b style=&quot;border-color: var(--border-color); font-size: 14px;&quot;&gt;发布事件A&lt;/b&gt;" style="edgeLabel;html=1;align=center;verticalAlign=middle;resizable=0;points=[];" parent="gYT4duZdmP7vBCuGks7C-58" vertex="1" connectable="0">
          <mxGeometry x="-0.3522" y="7" relative="1" as="geometry">
            <mxPoint as="offset" />
          </mxGeometry>
        </mxCell>
        <mxCell id="gYT4duZdmP7vBCuGks7C-52" value="" style="ellipse;whiteSpace=wrap;html=1;aspect=fixed;rounded=1;" parent="1" vertex="1">
          <mxGeometry x="210" y="-690" width="20" height="20" as="geometry" />
        </mxCell>
        <mxCell id="gYT4duZdmP7vBCuGks7C-62" value="&lt;font color=&quot;#0000ff&quot; style=&quot;font-size: 14px;&quot;&gt;context.publishEvent(eventA)&lt;/font&gt;" style="text;html=1;strokeColor=none;fillColor=none;align=center;verticalAlign=middle;whiteSpace=wrap;rounded=0;" parent="1" vertex="1">
          <mxGeometry x="80" y="-800" width="60" height="30" as="geometry" />
        </mxCell>
        <mxCell id="gYT4duZdmP7vBCuGks7C-63" value="&lt;font color=&quot;#0000ff&quot; style=&quot;font-size: 14px;&quot;&gt;multicaster.multicasterEvent(eventA)&lt;/font&gt;" style="text;html=1;strokeColor=none;fillColor=none;align=center;verticalAlign=middle;whiteSpace=wrap;rounded=0;" parent="1" vertex="1">
          <mxGeometry x="190" y="-599" width="60" height="30" as="geometry" />
        </mxCell>
        <mxCell id="gYT4duZdmP7vBCuGks7C-72" value="&lt;font style=&quot;font-size: 14px;&quot;&gt;&lt;font style=&quot;font-size: 14px;&quot;&gt;&lt;font color=&quot;#ff0000&quot;&gt;遍历&lt;/font&gt;&lt;font color=&quot;#0000ff&quot;&gt;找到所有监听&lt;/font&gt;&lt;font color=&quot;#ff0000&quot;&gt;事件A&lt;/font&gt;&lt;font color=&quot;#0000ff&quot;&gt;的监听器&lt;/font&gt;&lt;br&gt;&lt;/font&gt;&lt;font color=&quot;#0000ff&quot;&gt;然后调用监听器的响应方法&lt;/font&gt;&lt;br&gt;&lt;font color=&quot;#0000ff&quot;&gt;listener.onApplicationEvent(event)&lt;/font&gt;&lt;/font&gt;" style="text;html=1;strokeColor=none;fillColor=none;align=center;verticalAlign=middle;whiteSpace=wrap;rounded=0;" parent="1" vertex="1">
          <mxGeometry x="344.5" y="-280" width="240" height="30" as="geometry" />
        </mxCell>
      </root>
    </mxGraphModel>
  </diagram>
</mxfile>
